<?xml version="1.0" encoding="UTF-8"?><svg id="Layer_1" xmlns="http://www.w3.org/2000/svg" viewBox="0 0 89.42 93.43"><defs><style>.cls-1{fill:#fff;}.cls-1,.cls-2{stroke:#231f20;stroke-miterlimit:10;stroke-width:7px;}.cls-2{fill:none;}</style></defs><path class="cls-1" d="M14.82,54.09C28.98,38.05,43.15,21.07,57.31,5.02c8.65,8.14,18.48,16.43,27.13,24.57-14.23,14.85-29.63,30.48-43.86,45.33-11.92,6.8-22.01,9.34-27.95,13.05-3.08,1.92-6.13,2.75-8.54,1.04-1.73-1.23,.77-3.46,1.85-6.41,2.36-6.46,5.5-15.84,8.88-28.5Z"/><path class="cls-1" d="M46.25,17.77c8.81,7.88,17.63,15.77,26.44,23.65"/><path class="cls-2" d="M7.18,79.12c3.28-1.47,5.44-1.99,6.66-.49,1.49,1.83,5.65,4.78,.98,8.12"/><path class="cls-2" d="M14.82,54.09c3.28-1.47,8.88-6.54,18.93,1.13,7.04,5.37,11.51,16.37,6.84,19.71"/></svg>